<?xml version="1.0" encoding="utf-8"?>
<!-- Generator: Adobe Illustrator 16.0.0, SVG Export Plug-In . SVG Version: 6.00 Build 0)  -->
<!DOCTYPE svg PUBLIC "-//W3C//DTD SVG 1.1//EN" "http://www.w3.org/Graphics/SVG/1.1/DTD/svg11.dtd">
<svg version="1.1" id="Layer_1" xmlns="http://www.w3.org/2000/svg" xmlns:xlink="http://www.w3.org/1999/xlink" x="0px" y="0px"
	 width="150px" height="150px" viewBox="0 0 150 150" enable-background="new 0 0 150 150" xml:space="preserve">
<g>
	<path fill="#FFFFFF" d="M69.8,146.8c-12.9,0-25.2-3.8-35.5-11.1c-29.6-21-34.8-64.6-11.6-97.4C37.1,18,59.6,5.9,82.9,5.9
		C95.8,5.9,108.1,9.7,118.4,17C132.8,27.2,141.9,43,144,61.4c2.1,18.3-2.8,37.1-14,52.9C115.6,134.7,93.1,146.8,69.8,146.8z
		 M82.9,11.9c-21.3,0-42,11.2-55.3,29.9c-21.3,30-16.7,69.9,10.2,89c9.3,6.601,20.3,10,32,10c21.3,0,42-11.2,55.3-29.899
		C135.4,96.3,140,79,138.1,62.1c-2-16.7-10.199-31-23.1-40.2C105.7,15.3,94.6,11.9,82.9,11.9z"/>
</g>
<g>
	<path fill="#FFFFFF" d="M70.6,135.7c-10.9,0-21.1-3.2-29.7-9.3C16,108.8,11.7,72,31.3,44.4c12.2-17.2,31.2-27.5,50.8-27.5
		c10.9,0,21.103,3.2,29.801,9.3c12,8.5,19.699,21.8,21.5,37.3c1.802,15.5-2.398,31.4-11.898,44.7C109.2,125.5,90.3,135.7,70.6,135.7
		z M82.1,17.9c-19.3,0-38,10.1-50,27.1c-19.3,27.2-15.1,63.4,9.4,80.7c8.5,6,18.6,9.2,29.2,9.2c19.3,0,38-10.103,50-27.103
		c9.3-13.198,13.5-28.8,11.7-44.1C130.6,48.5,123.1,35.5,111.3,27.1C102.8,21,92.7,17.9,82.1,17.9z"/>
</g>
<g>
	<path fill="#FFFFFF" d="M75.8,83c-1.2,0-2.4-0.4-3.4-1.1c-2.8-2-3.3-6.2-1.1-9.3c1.4-1.9,3.5-3.1,5.7-3.1c1.2,0,2.4,0.4,3.4,1.1
		c2.8,2,3.3,6.2,1.1,9.3C80.1,81.9,78,83,75.8,83z M76.9,70.8c-1.8,0-3.603,1-4.7,2.6c-1.8,2.6-1.4,6,0.8,7.6
		c0.8,0.6,1.7,0.8,2.7,0.8c1.8,0,3.6-1,4.7-2.6c1.8-2.601,1.397-6-0.801-7.6C78.9,71.1,77.9,70.8,76.9,70.8z"/>
</g>
<g>
	
		<ellipse transform="matrix(-0.5781 0.816 -0.816 -0.5781 182.8775 58.1322)" fill="#FFFFFF" cx="76.41" cy="76.344" rx="3.199" ry="2.9"/>
</g>
<polygon fill="#FFFFFF" points="70.2,79 22.6,133.7 74.7,82.9 "/>
<polygon fill="#FFFFFF" points="74.9,70 101.3,1.8 81.2,71.5 "/>
</svg>
