<?xml version="1.0" encoding="utf-8"?>
<!-- Generator: Adobe Illustrator 16.0.0, SVG Export Plug-In . SVG Version: 6.00 Build 0)  -->
<!DOCTYPE svg PUBLIC "-//W3C//DTD SVG 1.1//EN" "http://www.w3.org/Graphics/SVG/1.1/DTD/svg11.dtd">
<svg version="1.1" id="Layer_1" xmlns="http://www.w3.org/2000/svg" xmlns:xlink="http://www.w3.org/1999/xlink" x="0px" y="0px"
	 width="100px" height="100px" viewBox="0 0 100 100" style="enable-background:new 0 0 100 100;" xml:space="preserve">
<style type="text/css">
<![CDATA[
	.st0{fill:#FFFFFF;stroke:#000000;stroke-width:2.5022;stroke-miterlimit:10;}
]]>
</style>
<polygon class="st0" points="97.4,35.4 97.4,21.9 78,21.9 78,24.9 65.4,24.9 65.4,20 2.5,20 2.5,69 17.7,82.9 65.4,82.9 65.4,76.3 
	78,76.3 78,79.3 97.4,79.3 97.4,65.9 78,65.9 78,68.8 65.4,68.8 65.4,61.7 78,61.7 78,64.7 97.4,64.7 97.4,51.2 78,51.2 78,54.2 
	65.4,54.2 65.4,47 78,47 78,50 97.4,50 97.4,36.5 78,36.5 78,39.5 65.4,39.5 65.4,32.4 78,32.4 78,35.4 "/>
<rect x="65.4" y="32.4" width="12.6" height="7.1"/>
<rect x="65.4" y="47.4" width="12.6" height="7.1"/>
<rect x="65.4" y="62.4" width="12.6" height="7.1"/>
</svg>
