<?xml version="1.0" encoding="utf-8"?>
<!-- Generator: Adobe Illustrator 16.0.0, SVG Export Plug-In . SVG Version: 6.00 Build 0)  -->
<!DOCTYPE svg PUBLIC "-//W3C//DTD SVG 1.1//EN" "http://www.w3.org/Graphics/SVG/1.1/DTD/svg11.dtd">
<svg version="1.1" xmlns="http://www.w3.org/2000/svg" xmlns:xlink="http://www.w3.org/1999/xlink" x="0px" y="0px" width="150px"
	 height="124.2px" viewBox="0 0 150 124.2" style="enable-background:new 0 0 150 124.2;" xml:space="preserve">
<style type="text/css">
<![CDATA[
	.st0{fill:#D8D8D8;stroke:#000000;stroke-width:0.3703;stroke-miterlimit:10;}
	.st1{fill:#F2F2F2;stroke:#000000;stroke-width:0.4065;stroke-miterlimit:10;}
	.st2{fill:#F2F2F2;stroke:#000000;stroke-width:0.3703;stroke-miterlimit:10;}
	.st3{fill:#A3A2A2;stroke:#000000;stroke-width:0.4065;stroke-miterlimit:10;}
	.st4{fill:#A3A2A2;stroke:#000000;stroke-width:0.3703;stroke-miterlimit:10;}
	.st5{fill:#FFFFFF;stroke:#000000;stroke-width:0.4065;stroke-miterlimit:10;}
	.st6{fill:#FFFFFF;stroke:#000000;stroke-width:0.3703;stroke-miterlimit:10;}
	.st7{fill:#D8D8D8;stroke:#000000;stroke-width:0.4065;stroke-miterlimit:10;}
]]>
</style>
<g id="Layer_1">
	<g>
		<polygon class="st5" points="40.7,25.1 19.1,16.8 40.7,8.6 84.1,8.6 105.8,16.8 84.1,25.1 		"/>
		<rect x="40.7" y="25.1" class="st7" width="43.4" height="76"/>
		<polygon class="st3" points="84.1,101.1 105.8,87 105.8,16.8 84.1,25.1 		"/>
		<polygon class="st1" points="40.7,101.1 19.1,86.9 19.1,16.8 40.7,25.1 		"/>
	</g>
</g>
<g id="Layer_1_copy">
	<g>
		<polygon class="st6" points="84.3,59.3 64.6,51.8 84.3,44.3 123.8,44.3 143.6,51.8 123.8,59.3 		"/>
		<rect x="84.3" y="59.3" class="st0" width="39.5" height="45.5"/>
		<polygon class="st4" points="123.8,104.8 143.6,94.3 143.6,51.8 123.8,59.3 		"/>
		<polygon class="st2" points="84.3,104.8 64.6,94.2 64.6,51.8 84.3,59.3 		"/>
	</g>
</g>
<g id="Layer_1_copy_2">
	<g>
		<polygon class="st6" points="27.8,97.1 8,89.6 27.8,82 67.3,82 87,89.6 67.3,97.1 		"/>
		<rect x="27.8" y="97.1" class="st0" width="39.5" height="19.5"/>
		<polygon class="st4" points="67.3,116.6 87,107.1 87,89.6 67.3,97.1 		"/>
		<polygon class="st2" points="27.8,116.6 8,107 8,89.6 27.8,97.1 		"/>
	</g>
</g>
</svg>
