<?xml version="1.0" encoding="utf-8"?>
<!-- Generator: Adobe Illustrator 16.0.0, SVG Export Plug-In . SVG Version: 6.00 Build 0)  -->
<!DOCTYPE svg PUBLIC "-//W3C//DTD SVG 1.1//EN" "http://www.w3.org/Graphics/SVG/1.1/DTD/svg11.dtd">
<svg version="1.1" xmlns="http://www.w3.org/2000/svg" xmlns:xlink="http://www.w3.org/1999/xlink" x="0px" y="0px" width="279px"
	 height="201px" viewBox="0 0 279 201" style="enable-background:new 0 0 279 201;" xml:space="preserve">
<style type="text/css">
<![CDATA[
	.st0{fill:none;stroke:#DB4949;stroke-width:3.5569;stroke-miterlimit:10;}
	.st1{opacity:0.7;fill:none;stroke:#BFE6F3;stroke-width:1.0361;stroke-miterlimit:10;}
	.st2{fill:none;stroke:#BFE6F3;stroke-width:0.7438;stroke-miterlimit:10;}
	.st3{fill:#B0AFB0;}
	.st4{fill:#FCEE22;stroke:#FFFFFF;stroke-width:4.757866e-02;stroke-miterlimit:10;}
	.st5{fill:#BFE6F3;}
	.st6{fill:none;stroke:#BFE6F3;stroke-width:1.5;stroke-miterlimit:10;}
	.st7{fill:none;stroke:#BFE6F3;stroke-miterlimit:10;}
	.st8{fill:#94D8E8;}
	.st9{fill:none;stroke:#DB4949;stroke-width:3.0993;stroke-miterlimit:10;}
	.st10{fill:#FCEE22;}
	.st11{fill:none;stroke:#84C6DB;stroke-width:2;stroke-miterlimit:10;}
	.st12{opacity:0.7;fill:none;stroke:#BFE6F3;stroke-miterlimit:10;}
	.st13{fill:#0793B7;stroke:#BFE6F3;stroke-width:0.8473;stroke-miterlimit:10;}
	.st14{fill:#0B2D4C;}
	.st15{fill:#DB4949;}
]]>
</style>
<g id="BG">
	<rect x="17" y="17.5" class="st14" width="245.9" height="169.9"/>
</g>
<g id="sphere">
	<path class="st11" d="M-26,68"/>
	<path class="st11" d="M-26,68"/>
	<path class="st1" d="M14,55.3"/>
	<path class="st12" d="M79.3,187.4"/>
	<path class="st12" d="M37,14.5"/>
	<path class="st2" d="M196.9,187.4"/>
	<path class="st2" d="M208.5,151.9"/>
	<path class="st13" d="M17,187.4h205c0-1.3,0.1-2.7,0.1-4c0-92.8-75.2-168-168-168c-12.7,0-25.1,1.4-37,4.1V187.4z"/>
	<g>
		<g>
			<path class="st5" d="M72.8,186.8v-1.5c53.2,0,135.4-29.1,135.4-67.8h0.8c0,18-16.7,35.7-47.8,49.7
				C134.2,179.2,100.3,186.8,72.8,186.8z"/>
		</g>
		<g>
			<path class="st6" d="M72.8,144"/>
		</g>
		<g>
			<path class="st6" d="M-63.2,117.5"/>
		</g>
	</g>
	<path class="st5" d="M106.7,23.6c0,15.6-43.1,24-89.7,26v1.5c41.2-1.9,91.2-8.8,91.2-27.2L106.7,23.6z"/>
	<g>
		<path class="st5" d="M168.1,60.5c0,24.1-87.2,49.9-149.8,50.3c0.5,0,1,0,1.5,0v1.5c29.2-0.4,65.7-6.4,96-15.8
			c16.3-5.1,53.4-18.7,53.4-35.9H168.1z"/>
		<path class="st5" d="M16.9,112.2L16.9,112.2c0.5,0,1,0,1.5,0C17.8,112.3,17.3,112.2,16.9,112.2z"/>
	</g>
	<path class="st5" d="M18.3,58.4c6.1,21.3,9.8,48.9,9.8,79c0,16.7-1.1,32.5-3.2,47h1c2.1-14.5,3.2-30.4,3.2-47
		c0-31.6-4.1-60.4-10.8-82.2V58.4z"/>
	<path class="st7" d="M16.9,184.5h64.2c2.9-14.4,4.5-30.2,4.5-46.8c0-66.4-25.6-120.2-57.3-120.2c-3.9,0-7.7,0.8-11.4,2.4V184.5z"/>
	<path class="st7" d="M17,184.5h146.9c3.1-17.7,3.1-36.9-0.5-56.4C150.1,55.8,92.6,5.8,34.8,16.3c-6.2,1.1-12.1,2.9-17.8,5.3V184.5z
		"/>
</g>
<g id="Layer_5">
	<polygon class="st4" points="143,143.3 104.7,181.7 104.7,143.3 	"/>
	<polygon class="st4" points="53.7,130.7 92,92.3 92,130.7 	"/>
</g>
<g id="target">
	<g>
		<polygon class="st8" points="266.8,135.5 99.9,135.5 99.9,14.5 96.8,14.5 96.8,135.5 14,135.5 14,138.6 96.8,138.6 96.8,193.3 
			99.9,193.3 99.9,138.6 266.8,138.6 		"/>
	</g>
	<circle class="st15" cx="98.3" cy="137" r="3.9"/>
	<g>
		<path class="st15" d="M98.3,149.7c-7,0-12.7-5.7-12.7-12.7c0-7,5.7-12.7,12.7-12.7S111,130,111,137
			C111,144,105.3,149.7,98.3,149.7z M98.3,125.4c-6.4,0-11.6,5.2-11.6,11.6c0,6.4,5.2,11.6,11.6,11.6s11.6-5.2,11.6-11.6
			C109.8,130.6,104.7,125.4,98.3,125.4z"/>
	</g>
	<g>
		<path class="st15" d="M98.3,158.4c-11.8,0-21.5-9.6-21.5-21.5c0-11.8,9.6-21.5,21.5-21.5s21.5,9.6,21.5,21.5
			C119.7,148.8,110.1,158.4,98.3,158.4z M98.3,116.8c-11.1,0-20.1,9-20.1,20.1c0,11.1,9,20.1,20.1,20.1s20.1-9,20.1-20.1
			C118.4,125.9,109.4,116.8,98.3,116.8z"/>
	</g>
	<g>
		<path class="st15" d="M98.3,168c-17.1,0-31-13.9-31-31c0-17.1,13.9-31,31-31s31,13.9,31,31C129.3,154.1,115.4,168,98.3,168z
			 M98.3,107.4c-16.3,0-29.6,13.3-29.6,29.6c0,16.3,13.3,29.6,29.6,29.6c16.3,0,29.6-13.3,29.6-29.6
			C127.9,120.7,114.6,107.4,98.3,107.4z"/>
	</g>
	<line class="st0" x1="98.3" y1="137.5" x2="169.7" y2="66.1"/>
	<line class="st9" x1="168.5" y1="66.1" x2="245.2" y2="66.1"/>
	<rect x="192.9" y="55.2" class="st10" width="7.3" height="7.2"/>
	<rect x="218.4" y="55.2" class="st10" width="7.3" height="7.2"/>
	<polygon class="st10" points="222.6,32.8 222.6,39.5 218.4,39.5 211.1,39.5 211.1,46.8 211.1,53.5 218.4,53.5 218.4,46.8 
		222.6,46.8 229,46.8 229.9,46.8 229.9,32.8 	"/>
	<polygon class="st10" points="207,34 200.2,34 192.9,34 192.9,41.3 192.9,53.5 200.2,53.5 200.2,41.3 207,41.3 	"/>
	<polygon class="st10" points="216.2,62.5 209.4,62.5 202,62.5 202,55.2 202,43 209.4,43 209.4,55.2 216.2,55.2 	"/>
	<polygon class="st10" points="191.5,48.2 176.9,48.2 176.9,55.2 169.9,55.2 169.9,62.5 184.5,62.5 184.5,55.5 191.5,55.5 	"/>
	<polygon class="st10" points="245.2,48.2 234,48.2 234,55.2 228.7,55.2 228.7,62.5 239.8,62.5 239.8,55.5 245.2,55.5 	"/>
</g>
<g id="grayContainer">
	<path class="st3" d="M264.6,55.6V17.3l-5.5-5.5h-40l-6.4-7.4l-95.3-0.1H65.1L58,11.7H18.3l-6.6,6v38.6l-8.9,9.1v71.4l9.3,9.3v39.3
		l5.1,5.1h40.5l6.4,7.5H210l9.1-7.7H260l6-6v-40l7.9-7.9V64.9L264.6,55.6z M259.1,180.6l-2.8,2.8H57.6l-37.7-37.7V23.1l3.4-3.4h125
		l108,0.5l2.8,1.8V180.6z"/>
</g>
</svg>
